<?xml version="1.0" ?><!DOCTYPE svg  PUBLIC '-//W3C//DTD SVG 1.1//EN'  'http://www.w3.org/Graphics/SVG/1.1/DTD/svg11.dtd'><svg enable-background="new 0 0 24 24" height="24px" id="Layer_1" version="1.1" viewBox="0 0 24 24" width="24px" xml:space="preserve" xmlns="http://www.w3.org/2000/svg" xmlns:xlink="http://www.w3.org/1999/xlink"><path d="M19.7,0.5H4.3c-2.1,0-3.8,1.7-3.8,3.8v15.4c0,2.1,1.7,3.8,3.8,3.8h15.4c2.1,0,3.8-1.7,3.8-3.8V4.3  C23.5,2.2,21.8,0.5,19.7,0.5z M14.8,20.7c-0.5,0.1-0.7,0-0.9-0.2c-0.2-0.2-0.3-0.4-0.3-0.7l0-0.5c0-0.4,0-1.1,0-1.8  c0-0.8-0.3-1.1-0.4-1.2c-0.1-0.1-0.2-0.3-0.1-0.5c0.1-0.2,0.2-0.3,0.4-0.3c1.8-0.2,3.4-0.8,3.4-3.7c0-0.8-0.2-1.4-0.7-1.9  C16,9.7,16,9.5,16,9.3c0.1-0.2,0.3-0.8,0-1.6c-0.3,0-0.8,0.2-1.7,0.8c-0.1,0.1-0.3,0.1-0.4,0.1c-0.6-0.2-1.3-0.3-2-0.3  c-0.7,0-1.4,0.1-2,0.3c-0.1,0-0.3,0-0.4-0.1C8.8,8,8.2,7.8,7.9,7.8c-0.2,0.8,0,1.4,0,1.6C8,9.5,8,9.7,7.9,9.8  c-0.5,0.5-0.7,1.2-0.7,1.9c0,2.9,1.7,3.5,3.4,3.7c0.3,0,0.5,0.3,0.4,0.5c0,0.3-0.3,0.4-0.5,0.4c-1.8-0.2-4.3-0.9-4.3-4.6  c0-0.9,0.3-1.7,0.8-2.4C6.8,8.9,6.7,8.1,7.1,7.1C7.2,7,7.3,6.9,7.4,6.8c0.2-0.1,1-0.2,2.5,0.8c0.6-0.2,1.3-0.2,2-0.2  c0.7,0,1.4,0.1,2,0.2c1.6-1,2.4-0.9,2.5-0.8c0.1,0,0.2,0.1,0.3,0.3c0.4,1,0.3,1.8,0.2,2.3c0.5,0.7,0.8,1.5,0.8,2.4  c0,3.2-1.8,4.2-3.5,4.5c0.1,0.3,0.2,0.8,0.2,1.2c0,0.8,0,1.4,0,1.8l0,0.4c3.2-1.1,5.3-4.1,5.3-7.5c0-4.4-3.5-7.9-7.9-7.9  c-4.4,0-7.9,3.6-7.9,7.9c0,3.4,2.2,6.5,5.4,7.5c-0.1-0.1-0.1-1.1-0.1-1.8c-0.1,0-0.2,0-0.4,0c-1.5,0-2.3-1-2.5-1.6  c-0.1-0.3,0.1-0.5,0.3-0.6c0.3-0.1,0.5,0.1,0.6,0.3c0,0.1,0.5,1.2,2.3,0.8c0.3-0.1,0.5,0.1,0.6,0.4c0,0.1,0,0.2,0,0.2  c0,0,0,0.1,0,0.1c0,0.7,0,2,0,2.2c0,0.3-0.1,0.5-0.3,0.7c-0.1,0.1-0.3,0.2-0.6,0.2c-0.1,0-0.1,0-0.2,0c-3.7-1.2-6.1-4.6-6.1-8.5  c0-4.9,4-8.9,8.9-8.9c4.9,0,8.9,4,8.9,8.9C20.9,16.1,18.4,19.4,14.8,20.7z"/></svg>